<svg width="1995" height="1867" viewBox="0 0 1995 1867" fill="none" xmlns="http://www.w3.org/2000/svg">
<path d="M1987.21 1218.42L1993.53 521.911" stroke="#CCCCCC" stroke-miterlimit="10" stroke-linecap="round"/>
<path d="M1987.21 1218.42L1370.48 1866.1" stroke="#CCCCCC" stroke-miterlimit="10" stroke-linecap="round"/>
<path d="M1987.21 1218.42L872.402 0.500122" stroke="#CCCCCC" stroke-miterlimit="10" stroke-linecap="round"/>
<path d="M1987.21 1218.42L1759.87 1334.68" stroke="#CCCCCC" stroke-miterlimit="10" stroke-linecap="round"/>
<path d="M1987.21 1218.42L0.5 117.434" stroke="#CCCCCC" stroke-miterlimit="10" stroke-linecap="round"/>
<path d="M1993.53 521.911L1370.48 1866.1" stroke="#CCCCCC" stroke-miterlimit="10" stroke-linecap="round"/>
<path d="M1993.53 521.911L872.402 0.500122" stroke="#CCCCCC" stroke-miterlimit="10" stroke-linecap="round"/>
<path d="M1993.53 521.911L1759.87 1334.68" stroke="#CCCCCC" stroke-miterlimit="10" stroke-linecap="round"/>
<path d="M1993.53 521.911L0.5 117.434" stroke="#CCCCCC" stroke-miterlimit="10" stroke-linecap="round"/>
<path d="M1370.48 1866.1L872.402 0.500122" stroke="#CCCCCC" stroke-miterlimit="10" stroke-linecap="round"/>
<path d="M1370.48 1866.1L1759.87 1334.68" stroke="#CCCCCC" stroke-miterlimit="10" stroke-linecap="round"/>
<path d="M1370.48 1866.1L0.5 117.434" stroke="#CCCCCC" stroke-miterlimit="10" stroke-linecap="round"/>
<path d="M872.402 0.500122L1759.87 1334.68" stroke="#CCCCCC" stroke-miterlimit="10" stroke-linecap="round"/>
<path d="M872.402 0.500122L0.5 117.434" stroke="#CCCCCC" stroke-miterlimit="10" stroke-linecap="round"/>
<path d="M1759.87 1334.68L0.5 117.434" stroke="#CCCCCC" stroke-miterlimit="10" stroke-linecap="round"/>
</svg>
